<svg width="74" height="25" viewBox="0 0 74 25" fill="none" xmlns="http://www.w3.org/2000/svg">
<path d="M15.0037 15.7188C15.0037 18.3438 14.4152 20.4323 13.2381 21.9844C12.0715 23.5365 10.4621 24.3125 8.41 24.3125C6.43083 24.3125 4.88917 23.599 3.785 22.1719L3.5975 24H0.16V0H3.95687V8.71875C5.05062 7.42708 6.52458 6.78125 8.37875 6.78125C10.4412 6.78125 12.061 7.54688 13.2381 9.07812C14.4152 10.6094 15.0037 12.75 15.0037 15.5V15.7188ZM11.2069 15.3906C11.2069 13.5573 10.884 12.1823 10.2381 11.2656C9.59229 10.349 8.65479 9.89062 7.42562 9.89062C5.77979 9.89062 4.62354 10.6094 3.95687 12.0469V19.0156C4.63396 20.4844 5.80062 21.2188 7.45687 21.2188C8.64437 21.2188 9.56104 20.776 10.2069 19.8906C10.8527 19.0052 11.186 17.6667 11.2069 15.875V15.3906ZM30.2206 24C30.054 23.6771 29.9081 23.151 29.7831 22.4219C28.5748 23.6823 27.0956 24.3125 25.3456 24.3125C23.6477 24.3125 22.2623 23.8281 21.1894 22.8594C20.1165 21.8906 19.58 20.6927 19.58 19.2656C19.58 17.4635 20.2467 16.0833 21.58 15.125C22.9237 14.1562 24.8404 13.6719 27.33 13.6719H29.6581V12.5625C29.6581 11.6875 29.4133 10.9896 28.9237 10.4688C28.4342 9.9375 27.6894 9.67188 26.6894 9.67188C25.8248 9.67188 25.1165 9.89062 24.5644 10.3281C24.0123 10.7552 23.7362 11.3021 23.7362 11.9688H19.9394C19.9394 11.0417 20.2467 10.1771 20.8612 9.375C21.4758 8.5625 22.3092 7.92708 23.3612 7.46875C24.4237 7.01042 25.606 6.78125 26.9081 6.78125C28.8873 6.78125 30.4654 7.28125 31.6425 8.28125C32.8196 9.27083 33.4237 10.6667 33.455 12.4688V20.0938C33.455 21.6146 33.6685 22.8281 34.0956 23.7344V24H30.2206ZM26.0487 21.2656C26.7987 21.2656 27.5019 21.0833 28.1581 20.7188C28.8248 20.3542 29.3248 19.8646 29.6581 19.25V16.0625H27.6112C26.205 16.0625 25.1477 16.3073 24.4394 16.7969C23.731 17.2865 23.3769 17.9792 23.3769 18.875C23.3769 19.6042 23.6165 20.1875 24.0956 20.625C24.5852 21.0521 25.2362 21.2656 26.0487 21.2656ZM42.875 7.09375L42.9844 9.04688C44.2344 7.53646 45.875 6.78125 47.9062 6.78125C51.4271 6.78125 53.2188 8.79688 53.2812 12.8281V24H49.4844V13.0469C49.4844 11.974 49.25 11.1823 48.7812 10.6719C48.3229 10.151 47.5677 9.89062 46.5156 9.89062C44.9844 9.89062 43.8438 10.5833 43.0938 11.9688V24H39.2969V7.09375H42.875ZM64.5762 16.75L62.8887 18.4844V24H59.0919V0H62.8887V13.8438L64.0762 12.3594L68.7481 7.09375H73.3106L67.0294 14.1406L73.9825 24H69.5919L64.5762 16.75Z" fill="#833CDE"/>
</svg>
